<mxfile host="app.diagrams.net" modified="2022-07-23T10:29:22.614Z" agent="5.0 (X11; Linux x86_64) AppleWebKit/537.36 (KHTML, like Gecko) Chrome/103.0.0.0 Safari/537.36" etag="A58NkBauCJBNaHN-vVh6" version="20.2.0" type="github">
  <diagram id="oz1kHgKvCgxcgCMBvD5w" name="第 1 页">
    <mxGraphModel dx="1422" dy="748" grid="1" gridSize="10" guides="1" tooltips="1" connect="1" arrows="1" fold="1" page="1" pageScale="1" pageWidth="827" pageHeight="1169" math="0" shadow="0">
      <root>
        <mxCell id="0" />
        <mxCell id="1" parent="0" />
        <mxCell id="4ACA8xONhZitXEJOrf2T-1" style="edgeStyle=orthogonalEdgeStyle;rounded=1;orthogonalLoop=1;jettySize=auto;html=1;exitX=1;exitY=0.5;exitDx=0;exitDy=0;entryX=0;entryY=0.5;entryDx=0;entryDy=0;sketch=1;curved=1;" edge="1" parent="1" source="4ACA8xONhZitXEJOrf2T-2" target="4ACA8xONhZitXEJOrf2T-4">
          <mxGeometry relative="1" as="geometry" />
        </mxCell>
        <mxCell id="4ACA8xONhZitXEJOrf2T-2" value="修改community/packages" style="rounded=1;whiteSpace=wrap;html=1;sketch=1;fillColor=#dae8fc;strokeColor=#6c8ebf;" vertex="1" parent="1">
          <mxGeometry x="90" y="120" width="120" height="60" as="geometry" />
        </mxCell>
        <mxCell id="4ACA8xONhZitXEJOrf2T-3" style="edgeStyle=orthogonalEdgeStyle;rounded=1;orthogonalLoop=1;jettySize=auto;html=1;exitX=1;exitY=0.5;exitDx=0;exitDy=0;sketch=1;curved=1;" edge="1" parent="1" source="4ACA8xONhZitXEJOrf2T-4" target="4ACA8xONhZitXEJOrf2T-6">
          <mxGeometry relative="1" as="geometry" />
        </mxCell>
        <mxCell id="4ACA8xONhZitXEJOrf2T-4" value="提交PR，等待管理员审核" style="rounded=1;whiteSpace=wrap;html=1;sketch=1;fillColor=#dae8fc;strokeColor=#6c8ebf;" vertex="1" parent="1">
          <mxGeometry x="260" y="120" width="120" height="60" as="geometry" />
        </mxCell>
        <mxCell id="4ACA8xONhZitXEJOrf2T-5" style="edgeStyle=orthogonalEdgeStyle;rounded=1;orthogonalLoop=1;jettySize=auto;html=1;exitX=1;exitY=0.5;exitDx=0;exitDy=0;entryX=0;entryY=0.5;entryDx=0;entryDy=0;sketch=1;curved=1;" edge="1" parent="1" source="4ACA8xONhZitXEJOrf2T-6" target="4ACA8xONhZitXEJOrf2T-8">
          <mxGeometry relative="1" as="geometry" />
        </mxCell>
        <mxCell id="4ACA8xONhZitXEJOrf2T-6" value="审核通过" style="rounded=1;whiteSpace=wrap;html=1;sketch=1;fillColor=#d5e8d4;strokeColor=#82b366;" vertex="1" parent="1">
          <mxGeometry x="430" y="120" width="120" height="60" as="geometry" />
        </mxCell>
        <mxCell id="4ACA8xONhZitXEJOrf2T-8" value="成为单包维护者" style="rounded=1;whiteSpace=wrap;html=1;sketch=1;fillColor=#d5e8d4;strokeColor=#82b366;" vertex="1" parent="1">
          <mxGeometry x="600" y="120" width="120" height="60" as="geometry" />
        </mxCell>
        <mxCell id="4ACA8xONhZitXEJOrf2T-17" value="" style="group" vertex="1" connectable="0" parent="1">
          <mxGeometry x="600" y="50" width="120" height="30" as="geometry" />
        </mxCell>
        <mxCell id="4ACA8xONhZitXEJOrf2T-18" value="开发者" style="rounded=1;whiteSpace=wrap;html=1;sketch=1;fillColor=#d5e8d4;strokeColor=#82b366;" vertex="1" parent="4ACA8xONhZitXEJOrf2T-17">
          <mxGeometry width="60" height="30" as="geometry" />
        </mxCell>
        <mxCell id="4ACA8xONhZitXEJOrf2T-19" value="openKylin" style="rounded=1;whiteSpace=wrap;html=1;sketch=1;fillColor=#dae8fc;strokeColor=#6c8ebf;" vertex="1" parent="4ACA8xONhZitXEJOrf2T-17">
          <mxGeometry x="60" width="60" height="30" as="geometry" />
        </mxCell>
      </root>
    </mxGraphModel>
  </diagram>
</mxfile>
